<?xml version="1.0" encoding="utf-8"?>
<!-- Generator: Adobe Illustrator 27.5.0, SVG Export Plug-In . SVG Version: 6.00 Build 0)  -->
<svg version="1.1" id="Capa_1" xmlns="http://www.w3.org/2000/svg" xmlns:xlink="http://www.w3.org/1999/xlink" x="0px" y="0px"
	 viewBox="0 0 64 64" style="enable-background:new 0 0 64 64;" xml:space="preserve">
<style type="text/css">
	.st0{fill:#FFFFFF;}
</style>
<path class="st0" d="M32,3.6C16.4,3.6,3.6,16.4,3.6,32S16.4,60.4,32,60.4S60.4,47.6,60.4,32S47.6,3.6,32,3.6z M32,58.5
	C17.4,58.5,5.5,46.6,5.5,32S17.4,5.5,32,5.5S58.5,17.4,58.5,32S46.6,58.5,32,58.5z"/>
<path class="st0" d="M32,10.6c-11.8,0-21.4,9.6-21.4,21.4S20.2,53.4,32,53.4S53.4,43.8,53.4,32S43.8,10.6,32,10.6z M42.2,40.2H21.8
	c-0.8,0-1.4-0.6-1.4-1.4c0-0.8,0.6-1.4,1.4-1.4h20.5c0.8,0,1.4,0.6,1.4,1.4C43.6,39.6,43,40.2,42.2,40.2z M42.2,33.4H21.8
	c-0.8,0-1.4-0.6-1.4-1.4c0-0.8,0.6-1.4,1.4-1.4h20.5c0.8,0,1.4,0.6,1.4,1.4C43.6,32.8,43,33.4,42.2,33.4z M42.2,26.5H21.8
	c-0.8,0-1.4-0.6-1.4-1.4c0-0.8,0.6-1.4,1.4-1.4h20.5c0.8,0,1.4,0.6,1.4,1.4C43.6,25.9,43,26.5,42.2,26.5z"/>
</svg>
